<?xml version="1.0" encoding="utf-8"?>
<!-- Generator: Adobe Illustrator 26.2.1, SVG Export Plug-In . SVG Version: 6.00 Build 0)  -->
<svg version="1.1" id="Layer_1" xmlns="http://www.w3.org/2000/svg" xmlns:xlink="http://www.w3.org/1999/xlink" x="0px" y="0px"
	 viewBox="0 0 904 342.16" style="enable-background:new 0 0 904 342.16;" xml:space="preserve">
<style type="text/css">
	.st0{fill:#DDDDDD;stroke:#000000;stroke-width:10;stroke-dasharray:30,6;}
	.st1{fill:#CDFECD;stroke:#000000;stroke-width:10;stroke-miterlimit:4.2667;}
	.st2{fill:#CDFECD;stroke:#000000;stroke-width:10;}
</style>
<rect x="93" y="77.16" class="st0" width="806" height="260"/>
<g>
	<path class="st1" d="M284.77,133.42h119.21c32.59,0,59.02,23.12,59.02,51.64l0,0c0,28.52-26.42,51.64-59.02,51.64H284.77
		c-32.59,0-59.02-23.12-59.02-51.64l0,0C225.75,156.54,252.18,133.42,284.77,133.42z"/>
</g>
<g>
	<path class="st2" d="M529.41,193.16H689.2l23.97,51.99l-23.97,51.99H529.41l-23.97-51.99L529.41,193.16z"/>
</g>
<g>
	<circle class="st1" cx="108.08" cy="108.08" r="103.08"/>
</g>
<g>
	<g>
		<path d="M755.81,260.28c-8.5,0-14.41-6.13-14.41-15.13c0-8.5,5.91-15.12,14.41-15.12s14.89,6.63,14.89,15.12
			C770.7,254.14,764.35,260.28,755.81,260.28z"/>
		<path d="M806.37,260.28c-8.5,0-14.41-6.13-14.41-15.13c0-8.5,5.91-15.12,14.41-15.12s14.89,6.63,14.89,15.12
			C821.26,254.14,814.87,260.28,806.37,260.28z"/>
		<path d="M856.93,260.28c-8.5,0-14.41-6.13-14.41-15.13c0-8.5,5.91-15.12,14.41-15.12s14.89,6.63,14.89,15.12
			C871.8,254.14,865.43,260.28,856.93,260.28z"/>
	</g>
</g>
</svg>
