<?xml version="1.0" encoding="utf-8"?>
<!-- Generator: Adobe Illustrator 26.1.0, SVG Export Plug-In . SVG Version: 6.00 Build 0)  -->
<svg version="1.1" id="Layer_1" xmlns="http://www.w3.org/2000/svg" xmlns:xlink="http://www.w3.org/1999/xlink" x="0px" y="0px"
	 viewBox="0 0 1009.3 391.9" style="enable-background:new 0 0 1009.3 391.9;" xml:space="preserve">
<style type="text/css">
	.st0{fill:#CDFECD;stroke:#000000;stroke-width:10;stroke-miterlimit:4.2667;stroke-dasharray:30,6;}
	.st1{font-family:'ArialMT';}
	.st2{font-size:67.7022px;}
	.st3{fill:#CDFECD;stroke:#000000;stroke-width:10;stroke-miterlimit:4.2667;}
	.st4{fill:none;stroke:#000000;stroke-width:10;stroke-miterlimit:10;}
</style>
<path class="st0" d="M340.3,3.6C452.6,3.9,564.8,4.2,677,4.5c5.8,7,25.9,33,25.9,71.8c0,38.6-19.8,64.5-25.5,71.5
	c-113.2-0.2-226.4-0.4-339.7-0.7c-3.7-2.8-35.1-27.8-35.1-70.8C302.6,31.3,337,6,340.3,3.6z"/>
<text transform="matrix(1 0 0 1 316.8513 100.4582)" class="st1 st2">INTENTION</text>
<path class="st0" d="M432,268h134.5c36.8,0,66.6,26.1,66.6,58.2l0,0c0,32.2-29.8,58.2-66.6,58.2H432c-36.8,0-66.6-26.1-66.6-58.2
	l0,0C365.4,294.1,395.2,268,432,268z"/>
<path class="st3" d="M71.5,264.6h133c36.4,0,65.8,25.8,65.8,57.6l0,0c0,31.8-29.5,57.6-65.8,57.6h-133c-36.4,0-65.8-25.8-65.8-57.6
	l0,0C5.7,290.4,35.2,264.6,71.5,264.6z"/>
<g>
	<g>
		<path d="M797.2,342.4c-11.3,0-19.2-8.2-19.2-20.2c0-11.3,7.9-20.2,19.2-20.2c11.3,0,19.9,8.9,19.9,20.2
			C817.1,334.2,808.6,342.4,797.2,342.4z"/>
		<path d="M864.7,342.4c-11.3,0-19.2-8.2-19.2-20.2c0-11.3,7.9-20.2,19.2-20.2c11.3,0,19.9,8.9,19.9,20.2
			C884.6,334.2,876,342.4,864.7,342.4z"/>
		<path d="M932.2,342.4c-11.3,0-19.2-8.2-19.2-20.2c0-11.3,7.9-20.2,19.2-20.2c11.3,0,19.9,8.9,19.9,20.2
			C952,334.2,943.5,342.4,932.2,342.4z"/>
	</g>
</g>
<line class="st4" x1="166.3" y1="262.6" x2="390.7" y2="152.5"/>
<line class="st4" x1="495.7" y1="153.7" x2="493" y2="268"/>
<line class="st4" x1="576.3" y1="152.5" x2="853" y2="287.5"/>
<path class="st0" d="M658.7,152.5"/>
</svg>
